<svg width="275" height="234" viewBox="0 0 275 234" version="1.1" xmlns="http://www.w3.org/2000/svg" xmlns:xlink="http://www.w3.org/1999/xlink">
<g id="Canvas" fill="none">
<g id="Vector (Stroke)">
<path fill-rule="evenodd" clip-rule="evenodd" d="M 136.989 27C 76.2432 27 27 76.1966 27 136.797C 27 167.098 39.3368 194.573 59.2148 214.42L 40.1379 233.527C 15.4075 208.835 0 174.571 0 136.797C 0 61.2452 61.3712 0 136.989 0C 212.607 0 273.978 61.2452 273.978 136.797C 273.978 143.447 273.03 151.344 272.072 158.145C 272.029 158.45 268.122 173.344 268.079 173.645L 243.579 167.145C 243.607 166.948 246.551 155.342 246.579 155.145C 247.537 148.364 246.978 141.491 246.978 136.797C 246.978 76.1966 197.735 27 136.989 27Z" transform="translate(0.921387 0.354858)" fill="#6ecd96" fill-opacity="0.4"/>
</g>
</g>
</svg>

