<?xml version="1.0" encoding="utf-8"?>
<!-- Generator: Adobe Illustrator 16.0.0, SVG Export Plug-In . SVG Version: 6.00 Build 0)  -->
<!DOCTYPE svg PUBLIC "-//W3C//DTD SVG 1.0//EN" "http://www.w3.org/TR/2001/REC-SVG-20010904/DTD/svg10.dtd">
<svg version="1.0" id="Layer_1" xmlns="http://www.w3.org/2000/svg" xmlns:xlink="http://www.w3.org/1999/xlink" x="0px" y="0px"
	 width="37px" height="36px" viewBox="0 0 37 36" enable-background="new 0 0 37 36" xml:space="preserve">
<circle fill="#27AE60" cx="18.718" cy="17.906" r="11.281"/>
<g id="Canvas">
	<g id="CPU">
		<g id="Group">
			<g id="Group_2">
				<g id="Group_3">
					<g id="Vector">
						<path fill="#FFFFFF" d="M35.834,23.094c-0.773-0.332-1.545-0.222-2.146,0.36c-0.486,0.471-1.029,0.276-1.573,0.276
							c-0.058,0-0.2-0.139-0.2-0.221c-0.028-0.693-0.028-1.386,0-2.078c0-0.083,0.143-0.25,0.229-0.25
							c0.544,0,1.059-0.138,1.545,0.361c0.744,0.803,1.917,0.775,2.689,0.055c0.801-0.748,0.83-1.773,0.086-2.604
							c-0.715-0.776-1.889-0.887-2.66-0.139c-0.458,0.443-0.887,0.471-1.431,0.471c-0.315,0-0.458-0.111-0.458-0.416
							c0-0.665,0-1.301,0-1.966c0-0.111,0.058-0.277,0.172-0.333c0.314-0.194,1.259,0.028,1.516,0.305
							c0.744,0.804,1.975,0.859,2.775,0.111c0.772-0.692,0.83-1.773,0.086-2.548c-0.744-0.804-1.975-0.887-2.718-0.111
							c-0.429,0.471-0.915,0.499-1.431,0.443c-0.143-0.027-0.4-0.222-0.4-0.36c-0.028-0.637-0.028-1.274,0-1.884
							c0-0.139,0.229-0.388,0.372-0.388c0.544-0.056,1.059-0.028,1.517,0.443c0.744,0.748,1.859,0.637,2.604-0.138
							c0.743-0.776,0.743-1.773-0.029-2.549c-0.744-0.748-1.859-0.831-2.632-0.083c-0.4,0.388-0.801,0.471-1.345,0.471
							c-0.429,0-0.543-0.139-0.572-0.554c-0.114-2.826-1.716-4.46-4.576-4.792c-0.973-0.111-1.002-0.111-0.888-1.053
							c0.028-0.25,0.258-0.526,0.429-0.72c0.744-0.831,0.744-1.856-0.027-2.604c-0.658-0.72-1.688-0.776-2.489-0.111
							c-0.802,0.665-0.944,1.856-0.257,2.604c0.428,0.471,0.485,0.942,0.428,1.468c-0.027,0.138-0.257,0.36-0.4,0.388
							c-0.6,0.055-1.229,0.028-1.83,0c-0.115,0-0.344-0.111-0.344-0.194c0-0.499-0.229-1.025,0.258-1.468
							c0.515-0.443,0.801-0.998,0.658-1.69c-0.172-0.803-0.916-1.496-1.66-1.579c-0.771-0.111-1.572,0.333-1.973,1.081
							c-0.373,0.692-0.258,1.523,0.428,2.133c0.516,0.471,0.315,0.998,0.344,1.496c0,0.055-0.229,0.194-0.344,0.194
							c-0.686,0.028-1.373,0.028-2.088,0c-0.114,0-0.257-0.083-0.314-0.166c-0.172-0.333,0.029-1.191,0.343-1.468
							c0.515-0.471,0.715-1.053,0.601-1.718c-0.143-0.775-0.83-1.44-1.63-1.551S14.95,0.322,14.55,1.098
							c-0.343,0.692-0.257,1.579,0.4,2.105c0.572,0.443,0.4,0.942,0.4,1.468c0,0.083-0.2,0.249-0.286,0.249
							c-0.715,0.028-1.431,0.028-2.146,0c-0.115,0-0.315-0.194-0.315-0.305c-0.029-0.526-0.086-1.025,0.4-1.468
							c0.801-0.748,0.744-1.856-0.057-2.576c-0.801-0.748-1.831-0.748-2.632-0.028C9.515,1.264,9.429,2.373,10.23,3.12
							c0.429,0.388,0.458,0.804,0.458,1.302c0,0.388-0.143,0.526-0.543,0.526C9.057,4.977,8.027,5.226,7.112,5.891
							C5.796,6.86,5.224,8.19,5.138,9.769c0,0.166-0.143,0.499-0.2,0.499c-0.543,0.028-1.087,0.222-1.545-0.305
							c-0.429-0.499-1.03-0.72-1.716-0.582c-0.772,0.139-1.516,0.942-1.602,1.662c-0.086,0.748,0.4,1.552,1.144,1.912
							c0.687,0.333,1.574,0.222,2.146-0.416c0.458-0.499,1.03-0.305,1.545-0.305c0.057,0,0.2,0.222,0.2,0.333
							c0.029,0.665,0.029,1.302,0,1.967c0,0.139-0.2,0.36-0.314,0.36c-0.515,0.028-1.03,0.111-1.459-0.388
							c-0.715-0.803-1.945-0.748-2.718,0s-0.772,1.773-0.029,2.549c0.744,0.72,2.003,0.831,2.689,0.055
							c0.429-0.471,0.887-0.526,1.43-0.471c0.143,0.028,0.4,0.222,0.4,0.36c0.057,0.637,0.029,1.302,0,1.968
							c0,0.11-0.086,0.305-0.2,0.359c-0.343,0.166-1.23-0.027-1.545-0.305c-0.486-0.443-1.03-0.72-1.716-0.582
							c-0.83,0.166-1.516,0.859-1.63,1.607c-0.115,0.72,0.343,1.523,1.116,1.938c0.629,0.333,1.544,0.277,2.117-0.36
							c0.429-0.471,0.944-0.443,1.459-0.415c0.143,0,0.343,0.222,0.372,0.36c0.028,0.582,0,1.191,0.028,1.773
							c0,0.305-0.143,0.415-0.458,0.415c-0.543,0-1.001-0.028-1.488-0.415c-0.83-0.693-2.002-0.527-2.689,0.276
							c-0.658,0.775-0.629,1.745,0.114,2.466c0.772,0.748,1.831,0.748,2.689,0c0.085-0.084,0.143-0.222,0.257-0.222
							c0.429-0.083,0.887-0.167,1.316-0.139c0.086,0,0.229,0.443,0.229,0.692c0.229,2.659,1.859,4.322,4.52,4.599
							c1.03,0.11,1.116,0.166,0.944,1.163c-0.029,0.25-0.257,0.471-0.458,0.665c-0.715,0.804-0.687,1.829,0.058,2.577
							c0.772,0.747,1.831,0.775,2.632,0.055c0.801-0.721,0.915-1.828,0.143-2.576c-0.486-0.443-0.458-0.941-0.458-1.469
							c0-0.276,0.143-0.387,0.429-0.387c0.429,0,0.887,0,1.316,0c1.116,0,1.202,0.082,1.03,1.135
							c-0.028,0.194-0.229,0.416-0.4,0.555c-0.772,0.775-0.772,1.939,0,2.715c0.744,0.72,1.859,0.72,2.632-0.027
							c0.744-0.721,0.744-1.939,0-2.66c-0.343-0.332-0.658-1.302-0.372-1.523c0.229-0.193,0.687-0.139,1.059-0.193
							c0.086,0,0.2,0,0.286,0c0.314,0,0.657-0.028,0.973,0c0.144,0,0.314,0.082,0.372,0.166c0.2,0.305,0,1.219-0.286,1.496
							c-0.458,0.471-0.772,0.996-0.629,1.662c0.143,0.803,0.886,1.495,1.66,1.605c0.801,0.111,1.602-0.332,2.03-1.107
							c0.372-0.692,0.2-1.496-0.458-2.133c-0.285-0.277-0.486-1.164-0.314-1.496c0.058-0.111,0.229-0.193,0.372-0.193
							c0.601-0.028,1.229-0.028,1.831,0c0.143,0,0.371,0.221,0.4,0.387c0.057,0.527,0.029,1.025-0.43,1.469
							c-0.686,0.721-0.572,1.884,0.172,2.576s1.746,0.692,2.547,0c0.771-0.665,0.857-1.689,0.199-2.521
							c-0.086-0.111-0.199-0.222-0.314-0.333c-0.457-0.388-0.258-0.914-0.2-1.357c0-0.11,0.487-0.221,0.772-0.221
							c2.66-0.139,4.492-1.885,4.663-4.434c0.058-0.969,0.2-1.08,1.202-0.914c0.229,0.028,0.429,0.223,0.6,0.389
							c0.658,0.582,1.432,0.748,2.117,0.415c0.772-0.36,1.23-1.053,1.174-1.828C36.949,23.896,36.491,23.371,35.834,23.094z
							 M18.498,28.994C12.29,28.939,7.169,23.98,7.227,17.997c0.028-6.15,5.035-10.998,11.328-11.025
							c6.236,0,11.357,5.014,11.3,11.025C29.826,24.063,24.648,29.05,18.498,28.994z"/>
					</g>
					<g id="Vector_2">
						<path fill="#FFFFFF" d="M11.604,16.307c-0.429,0.416-0.629,0.942-0.629,1.579c0,0.609,0.171,1.108,0.543,1.468
							c0.372,0.361,0.887,0.555,1.516,0.555c0.486,0,0.887-0.083,1.202-0.222v-0.831c-0.315,0.166-0.658,0.249-1.001,0.249
							c-0.4,0-0.687-0.11-0.916-0.36c-0.229-0.221-0.343-0.554-0.343-0.941c0-0.416,0.115-0.748,0.372-0.97
							c0.229-0.249,0.572-0.36,0.944-0.36c0.372,0,0.687,0.083,0.973,0.249v-0.886c-0.286-0.111-0.629-0.139-1.03-0.139
							C12.576,15.697,12.032,15.919,11.604,16.307z"/>
					</g>
					<g id="Vector_3">
						<path fill="#FFFFFF" d="M16.495,15.78h-1.487v4.072h0.944v-1.413h0.458c0.515,0,0.916-0.138,1.23-0.388
							c0.314-0.249,0.458-0.582,0.458-0.997C18.068,16.224,17.554,15.78,16.495,15.78z M16.324,17.747h-0.372v-1.274h0.372
							c0.515,0,0.744,0.222,0.744,0.637S16.838,17.747,16.324,17.747z"/>
					</g>
					<g id="Vector_4">
						<path fill="#FFFFFF" d="M21.187,18.163c0,0.637-0.257,0.942-0.772,0.942c-0.543,0-0.801-0.332-0.801-0.997v-2.354h-0.944
							v2.354c0,1.191,0.572,1.801,1.716,1.801c1.173,0,1.773-0.609,1.773-1.829V15.78h-0.944v2.382H21.187z"/>
					</g>
					<g id="Vector_5">
						<path fill="#FFFFFF" d="M24.848,18.412c-0.057-0.056-0.143-0.111-0.257-0.166c-0.086-0.056-0.2-0.083-0.343-0.139
							c-0.058-0.028-0.144-0.056-0.201-0.056c-0.057-0.027-0.143-0.055-0.199-0.083c-0.058-0.028-0.115-0.055-0.144-0.111
							c-0.028-0.028-0.058-0.083-0.058-0.138c0-0.028,0-0.083,0.029-0.111c0.028-0.028,0.057-0.056,0.086-0.083
							c0.028-0.027,0.086-0.027,0.143-0.055c0.057,0,0.114-0.028,0.172-0.028c0.143,0,0.258,0.028,0.4,0.056
							c0.143,0.027,0.258,0.083,0.371,0.138v-0.692c-0.143-0.028-0.257-0.055-0.4-0.083c-0.143-0.028-0.285-0.028-0.4-0.028
							c-0.172,0-0.343,0.028-0.486,0.056c-0.172,0.027-0.285,0.083-0.429,0.166c-0.114,0.083-0.229,0.166-0.286,0.277
							c-0.086,0.111-0.114,0.25-0.114,0.416c0,0.111,0.028,0.222,0.058,0.305c0.028,0.083,0.086,0.167,0.143,0.222
							c0.057,0.056,0.143,0.111,0.229,0.167c0.086,0.055,0.201,0.111,0.314,0.138c0.086,0.027,0.144,0.056,0.229,0.083
							c0.086,0.028,0.144,0.056,0.229,0.083c0.057,0.027,0.113,0.056,0.171,0.111c0.058,0.027,0.058,0.083,0.058,0.139
							c0,0.083-0.058,0.166-0.144,0.193c-0.085,0.027-0.229,0.056-0.4,0.056c-0.144,0-0.286-0.028-0.429-0.056
							c-0.144-0.055-0.314-0.11-0.458-0.193v0.72c0.286,0.11,0.601,0.139,0.915,0.139c0.172,0,0.344-0.028,0.516-0.056
							s0.314-0.083,0.429-0.166s0.229-0.166,0.315-0.305c0.085-0.111,0.113-0.277,0.113-0.443c0-0.111-0.028-0.222-0.057-0.305
							C24.963,18.551,24.906,18.467,24.848,18.412z"/>
					</g>
				</g>
			</g>
		</g>
	</g>
</g>
</svg>
