<?xml version="1.0" encoding="utf-8"?>
<!-- Generator: Adobe Illustrator 16.0.0, SVG Export Plug-In . SVG Version: 6.00 Build 0)  -->
<!DOCTYPE svg PUBLIC "-//W3C//DTD SVG 1.0//EN" "http://www.w3.org/TR/2001/REC-SVG-20010904/DTD/svg10.dtd">
<svg version="1.0" id="Layer_1" xmlns="http://www.w3.org/2000/svg" xmlns:xlink="http://www.w3.org/1999/xlink" x="0px" y="0px"
	 width="34px" height="34px" viewBox="0 0 34 34" enable-background="new 0 0 34 34" xml:space="preserve">
<rect x="8.708" y="20.959" fill="#02A4E1" width="17.167" height="6.833"/>
<g id="Group">
	<g id="Group_2">
		<g id="Group_3">
			<g id="Vector">
				<path fill="#FFFFFF" d="M17.187,15.816c-0.027-0.161-0.187-0.242-0.348-0.215c0,0-0.107,0.026-0.454,0.054
					c-0.027,0-0.027,0-0.027,0c-0.027,0-0.053-0.027-0.08-0.081s-0.107-0.188-0.134-0.269c0,0,0,0,0.027-0.054
					c0.107-0.296,0.187-0.403,0.187-0.403c0.08-0.134,0.027-0.323-0.107-0.376l-0.214-0.108c-0.134-0.081-0.321-0.027-0.401,0.108
					c0,0-0.08,0.107-0.294,0.323c-0.054,0.054-0.054,0.054-0.054,0.054c-0.08,0.027-0.187,0.027-0.214,0.027
					c-0.026,0-0.133-0.027-0.16-0.054c0,0,0,0-0.027-0.027c-0.16-0.269-0.187-0.404-0.187-0.404
					c-0.053-0.161-0.187-0.242-0.348-0.188l-0.187,0.027c-0.16,0.027-0.24,0.188-0.214,0.35c0,0,0.027,0.107,0.054,0.431
					c0,0.027,0,0.027,0,0.027c0,0.027-0.027,0.054-0.08,0.081c-0.027,0.027-0.214,0.107-0.268,0.134c0,0,0,0-0.08-0.027
					c-0.294-0.081-0.428-0.134-0.428-0.134c-0.134-0.081-0.321-0.027-0.401,0.107l-0.134,0.215c-0.08,0.134-0.027,0.323,0.107,0.376
					c0,0,0.107,0.054,0.348,0.269c0.053,0.054,0.053,0.054,0.053,0.054c0.027,0.054,0.054,0.135,0.027,0.188
					c0,0.054-0.027,0.188-0.027,0.188c-0.294,0.135-0.428,0.162-0.428,0.162c-0.16,0.054-0.24,0.188-0.187,0.35l0.054,0.215
					c0.026,0.161,0.187,0.242,0.347,0.215c0,0,0.241-0.054,0.455-0.054c0.027,0,0.027,0,0.027,0c0.026,0,0.053,0.027,0.08,0.081
					c0.027,0.027,0.107,0.188,0.107,0.242c0,0,0,0-0.027,0.054c-0.107,0.296-0.187,0.403-0.187,0.403
					c-0.08,0.135-0.027,0.323,0.107,0.377l0.214,0.107c0.134,0.081,0.321,0.027,0.401-0.107c0,0,0.08-0.107,0.294-0.322
					c0.054,0.053,0.054,0.053,0.054,0.053c0.08-0.026,0.16-0.026,0.214-0.026c0.053,0,0.187,0.026,0.187,0.026s0,0,0,0.027
					c0.134,0.296,0.187,0.484,0.187,0.484c0.053,0.161,0.187,0.242,0.348,0.188l0.24-0.054c0.161-0.027,0.241-0.188,0.214-0.35
					c0,0-0.053-0.216-0.053-0.512c0-0.026,0-0.026,0-0.026c0-0.027,0.027-0.054,0.053-0.081c0.027-0.027,0.161-0.08,0.241-0.107
					c0,0,0,0,0.08,0.027c0.294,0.08,0.428,0.134,0.428,0.134c0.134,0.081,0.321,0.027,0.401-0.107l0.134-0.216
					c0.08-0.134,0.027-0.295-0.107-0.403c0,0-0.107-0.054-0.348-0.269c-0.053-0.027-0.053-0.027-0.053-0.027
					c-0.027-0.027-0.027-0.107-0.027-0.162c0-0.054,0.027-0.215,0.054-0.215c0,0,0,0,0.026,0c0.268-0.162,0.401-0.188,0.401-0.188
					c0.161-0.054,0.241-0.188,0.188-0.35L17.187,15.816z M15.075,17.242c-0.401,0.107-0.802-0.135-0.909-0.538
					s0.134-0.807,0.535-0.915c0.401-0.107,0.802,0.134,0.909,0.538C15.69,16.731,15.45,17.162,15.075,17.242z"/>
			</g>
			<g id="Vector_2">
				<path fill="#FFFFFF" d="M20.795,10.813c0,0-0.267,0-0.748-0.081c-0.026,0-0.026,0-0.026,0c-0.026,0-0.08-0.081-0.106-0.161
					c-0.027-0.081-0.107-0.35-0.08-0.431c0,0,0,0,0.053-0.081c0.294-0.403,0.481-0.592,0.481-0.592c0.134-0.134,0.134-0.376,0-0.511
					l-0.374-0.376c-0.135-0.134-0.348-0.134-0.481,0l-0.722,1.372c0.4,0.376,0.668,0.888,0.668,1.479
					c0,1.103-0.908,2.017-2.031,2.017c-1.123,0-2.031-0.888-2.031-2.017c0-0.996,0.722-1.829,1.684-1.964l0.508-1.721h-0.454
					c-0.187,0-0.348,0.161-0.348,0.35c0,0,0,0.242-0.08,0.753c0,0.027,0,0.027,0,0.027c0,0.027-0.08,0.081-0.134,0.081
					c-0.08,0.027-0.347,0.081-0.481,0.081c0,0,0,0-0.107-0.054c-0.401-0.215-0.615-0.431-0.615-0.431
					c-0.134-0.134-0.375-0.134-0.508,0L14.487,8.93c-0.133,0.135-0.133,0.35,0,0.511c0,0,0.188,0.188,0.481,0.592
					c0.053,0.081,0.053,0.081,0.053,0.081c0.027,0.081,0,0.215-0.027,0.296c-0.026,0.081-0.107,0.269-0.133,0.296c0,0,0,0-0.027,0
					c-0.508,0.081-0.775,0.081-0.775,0.081c-0.187,0-0.347,0.162-0.347,0.35v0.511c0,0.188,0.16,0.377,0.347,0.377
					c0,0,0.455,0.027,0.775,0.107c0.027,0,0.027,0,0.027,0c0.026,0,0.08,0.081,0.08,0.134c0.027,0.081,0.08,0.323,0.08,0.404
					c0,0,0,0-0.053,0.081c-0.294,0.403-0.481,0.592-0.481,0.592c-0.133,0.134-0.133,0.376,0,0.511l0.375,0.376
					c0.133,0.134,0.374,0.134,0.508,0c0,0,0.214-0.215,0.615-0.431c0.107-0.054,0.107-0.054,0.107-0.054
					c0.107,0,0.267,0.027,0.347,0.054c0.081,0.027,0.268,0.108,0.268,0.135c0,0,0,0,0,0.027c0.08,0.484,0.08,0.861,0.08,0.861
					c0,0.188,0.161,0.35,0.348,0.35h0.534c0.188,0,0.348-0.162,0.348-0.35c0,0,0-0.403,0.134-0.861c0-0.027,0-0.027,0-0.027
					c0.026-0.027,0.054-0.054,0.106-0.081c0.054-0.027,0.295-0.081,0.401-0.054c0,0,0,0,0.106,0.054
					c0.401,0.215,0.615,0.43,0.615,0.43c0.134,0.135,0.375,0.135,0.508,0l0.375-0.376c0.133-0.135,0.133-0.35,0-0.511
					c0,0-0.188-0.188-0.482-0.592c-0.053-0.081-0.053-0.081-0.053-0.081c-0.027-0.081,0-0.215,0.027-0.269
					c0.025-0.081,0.133-0.296,0.16-0.323c0,0,0,0,0.026,0c0.454-0.134,0.748-0.134,0.748-0.134c0.188,0,0.348-0.162,0.348-0.35
					v-0.511C21.143,10.975,20.982,10.813,20.795,10.813z"/>
			</g>
			<g id="Vector_3">
				<path fill="#FFFFFF" d="M17.615,11.136l-0.588,1.533l1.978-2.098l-0.749-0.188l1.417-2.744l-1.63-0.43l-1.15,3.82L17.615,11.136
					z"/>
			</g>
			<g id="Vector_4">
				<path fill="#FFFFFF" d="M3.795,7.747H0v4.223h3.795V7.747z"/>
			</g>
			<g id="Vector_5">
				<path fill="#FFFFFF" d="M3.795,12.373H0v4.223h3.795V12.373z"/>
			</g>
			<g id="Vector_6">
				<path fill="#FFFFFF" d="M3.795,17.753H0v4.224h3.795V17.753z"/>
			</g>
			<g id="Vector_7">
				<path fill="#FFFFFF" d="M3.795,22.406H0v4.224h3.795V22.406z"/>
			</g>
			<g id="Vector_8">
				<path fill="#FFFFFF" d="M26.756,0H22.56v3.82h4.196V0z"/>
			</g>
			<g id="Vector_9">
				<path fill="#FFFFFF" d="M22.186,0h-4.197v3.82h4.197V0z"/>
			</g>
			<g id="Vector_10">
				<path fill="#FFFFFF" d="M16.84,0h-4.197v3.82h4.197V0z"/>
			</g>
			<g id="Vector_11">
				<path fill="#FFFFFF" d="M12.188,0H7.992v3.82h4.196V0z"/>
			</g>
			<g id="Vector_12">
				<path fill="#FFFFFF" d="M26.355,30.181h-4.197V34h4.197V30.181z"/>
			</g>
			<g id="Vector_13">
				<path fill="#FFFFFF" d="M21.785,30.181h-4.197V34h4.197V30.181z"/>
			</g>
			<g id="Vector_14">
				<path fill="#FFFFFF" d="M16.438,30.181h-4.196V34h4.196V30.181z"/>
			</g>
			<g id="Vector_15">
				<path fill="#FFFFFF" d="M11.788,30.181H7.591V34h4.196V30.181z"/>
			</g>
			<g id="Vector_16">
				<path fill="#FFFFFF" d="M34,17.753h-3.796v4.224H34V17.753z"/>
			</g>
			<g id="Vector_17">
				<path fill="#FFFFFF" d="M34,22.406h-3.796v4.224H34V22.406z"/>
			</g>
			<g id="Vector_18">
				<path fill="#FFFFFF" d="M34,7.747h-3.796v4.223H34V7.747z"/>
			</g>
			<g id="Vector_19">
				<path fill="#FFFFFF" d="M34,12.427h-3.796v4.223H34V12.427z"/>
			</g>
			<g id="Vector_20">
				<path fill="#FFFFFF" d="M13.846,22.811h-0.321v1.103h0.321c0.428,0,0.642-0.188,0.642-0.565
					C14.487,22.998,14.273,22.811,13.846,22.811z"/>
			</g>
			<g id="Vector_21">
				<path fill="#FFFFFF" d="M20.85,22.838c-0.027,0.107-0.055,0.215-0.08,0.322l-0.375,1.211h0.909L20.93,23.16
					C20.876,23.053,20.876,22.945,20.85,22.838z"/>
			</g>
			<g id="Vector_22">
				<path fill="#FFFFFF" d="M27.104,5.003H6.656c-0.882,0-1.577,0.7-1.577,1.587v20.9c0,0.888,0.695,1.588,1.577,1.588h20.448
					c0.883,0,1.577-0.7,1.577-1.588V6.59C28.681,5.703,27.986,5.003,27.104,5.003z M10.237,6.644h13.151v13.234H10.237V6.644z
					 M12.135,22.837h-1.256v0.888h1.149v0.646h-1.149v1.399h-0.802v-3.578h2.058V22.837z M14.942,24.209
					c-0.268,0.215-0.588,0.322-1.016,0.322h-0.375v1.238H12.75v-3.578h1.256c0.882,0,1.336,0.377,1.336,1.13
					C15.316,23.697,15.209,23.967,14.942,24.209z M18.791,25.527c-0.348,0.188-0.775,0.295-1.283,0.295
					c-0.562,0-1.016-0.161-1.363-0.484c-0.321-0.322-0.481-0.752-0.481-1.317s0.187-1.022,0.535-1.372
					c0.347-0.35,0.829-0.537,1.443-0.537c0.374,0,0.694,0.053,0.989,0.16v0.754c-0.268-0.162-0.615-0.242-1.016-0.242
					c-0.321,0-0.615,0.107-0.802,0.322c-0.187,0.216-0.321,0.512-0.321,0.861c0,0.377,0.107,0.646,0.294,0.861
					c0.187,0.188,0.428,0.295,0.749,0.295c0.187,0,0.348-0.026,0.453-0.08v-0.699h-0.721v-0.646h1.524V25.527z M21.73,25.77
					l-0.24-0.808h-1.256l-0.24,0.808h-0.855l1.283-3.578h0.936l1.256,3.578H21.73z M24.645,25.365
					c-0.053,0.107-0.16,0.188-0.268,0.27c-0.106,0.08-0.24,0.107-0.374,0.135c-0.134,0.026-0.294,0.053-0.427,0.053
					c-0.268,0-0.535-0.053-0.775-0.134v-0.646c0.133,0.08,0.267,0.135,0.373,0.161c0.135,0.026,0.241,0.054,0.375,0.054
					s0.24-0.027,0.32-0.054s0.107-0.107,0.107-0.161c0-0.055-0.027-0.081-0.054-0.135c-0.026-0.027-0.08-0.054-0.134-0.08
					c-0.053-0.027-0.106-0.055-0.188-0.081c-0.08-0.027-0.133-0.054-0.187-0.081c-0.106-0.027-0.187-0.08-0.267-0.135
					c-0.081-0.053-0.135-0.107-0.188-0.161c-0.054-0.054-0.08-0.134-0.107-0.215c-0.026-0.081-0.053-0.161-0.053-0.269
					c0-0.135,0.026-0.27,0.08-0.377c0.053-0.107,0.133-0.188,0.24-0.242c0.107-0.055,0.214-0.107,0.348-0.135
					c0.133-0.027,0.268-0.054,0.428-0.054c0.106,0,0.213,0,0.348,0.026c0.106,0.027,0.24,0.055,0.348,0.081v0.618
					c-0.107-0.053-0.215-0.107-0.321-0.134s-0.214-0.054-0.321-0.054c-0.053,0-0.106,0-0.133,0.027c-0.054,0-0.08,0.026-0.107,0.026
					c-0.026,0.026-0.053,0.026-0.08,0.081c-0.027,0.026-0.027,0.053-0.027,0.08c0,0.055,0.027,0.081,0.055,0.107
					c0.026,0.027,0.08,0.055,0.106,0.081c0.054,0.026,0.106,0.054,0.16,0.054c0.054,0.027,0.106,0.027,0.187,0.054
					c0.107,0.027,0.188,0.081,0.295,0.108c0.08,0.053,0.16,0.08,0.213,0.16c0.055,0.055,0.107,0.135,0.135,0.216
					c0.026,0.081,0.053,0.161,0.053,0.269C24.752,25.123,24.725,25.258,24.645,25.365z"/>
			</g>
		</g>
	</g>
</g>
</svg>
