<svg width="275" height="235" viewBox="0 0 275 235" version="1.1" xmlns="http://www.w3.org/2000/svg" xmlns:xlink="http://www.w3.org/1999/xlink">
<g id="Canvas" fill="none">
<g id="Group">
<g id="Vector">
<path d="M 0 60.609C 16.4507 44.0008 28.4381 23.233 34.6656 0" stroke-width="2" stroke-miterlimit="10" transform="translate(233.472 172.957)" stroke="#EB5757"/>
</g>
<g id="Vector_2">
<path d="M 267.137 171.457L 266.158 171.255L 268.086 171.773L 267.137 171.457ZM 270.329 155.957L 271.316 156.116L 270.329 155.957ZM 40.5096 231.13C 16.119 206.777 1 173.081 1 135.789L -1 135.789C -1 173.634 14.3453 207.832 39.0965 232.545L 40.5096 231.13ZM 1 135.789C 1 61.3873 61.4794 1 136.001 1L 136.001 -1C 60.3778 -1 -1 60.2798 -1 135.789L 1 135.789ZM 136.001 1C 210.523 1 271.003 61.3873 271.003 135.789L 273.003 135.789C 273.003 60.2798 211.625 -1 136.001 -1L 136.001 1ZM 271.003 135.789C 271.003 142.732 270.397 149.271 269.342 155.797L 271.316 156.116C 272.387 149.498 273.003 142.852 273.003 135.789L 271.003 135.789ZM 269.342 155.797C 269.304 156.033 268.758 159.147 268.096 162.58C 267.428 166.045 266.663 169.718 266.189 171.141L 268.086 171.773C 268.612 170.196 269.402 166.369 270.06 162.959C 270.723 159.517 271.273 156.381 271.316 156.116L 269.342 155.797ZM 268.117 171.658L 271.308 156.158L 269.349 155.755L 266.158 171.255L 268.117 171.658Z" transform="translate(1.36279 1.54321)" fill="#2D9CDB"/>
</g>
<g id="Vector_3">
<path d="M 11.4241 -1.10506e-05L 0 11.1347" stroke-width="2" stroke-miterlimit="10" transform="translate(40.531 222.155)" stroke="#2D9CDB"/>
</g>
<g id="Vector_4">
<path d="M 13.9628 -2.76264e-06L -2.76695e-06 7.78525" stroke-width="2" stroke-miterlimit="10" transform="translate(18.9523 197.17)" stroke="#2D9CDB"/>
</g>
<g id="Vector_5">
<path d="M 15.5042 -2.76264e-06L -6.91738e-07 3.89262" stroke-width="2" stroke-miterlimit="10" transform="translate(5.44275 168.202)" stroke="#2D9CDB"/>
</g>
<g id="Vector_6">
<path d="M 15.9575 0.181055L 1.38348e-06 5.52528e-06" stroke-width="2" stroke-miterlimit="10" transform="translate(1 136.88)" stroke="#2D9CDB"/>
</g>
<g id="Vector_7">
<path d="M 15.3228 4.34525L 6.91738e-07 -5.52528e-06" stroke-width="2" stroke-miterlimit="10" transform="translate(5.80554 101.393)" stroke="#2D9CDB"/>
</g>
<g id="Vector_8">
<path d="M 13.6908 8.14735L 2.76695e-06 0" stroke-width="2" stroke-miterlimit="10" transform="translate(19.4963 68.4419)" stroke="#2D9CDB"/>
</g>
<g id="Vector_9">
<path d="M 11.1521 11.4063L 0 0" stroke-width="2" stroke-miterlimit="10" transform="translate(41.4377 40.3789)" stroke="#2D9CDB"/>
</g>
<g id="Vector_10">
<path d="M 7.88807 13.8505L 0 -1.38132e-06" stroke-width="2" stroke-miterlimit="10" transform="translate(69.998 19.1958)" stroke="#2D9CDB"/>
</g>
<g id="Vector_11">
<path d="M 3.98937 15.3894L -5.53391e-06 0" stroke-width="2" stroke-miterlimit="10" transform="translate(103.001 5.979)" stroke="#2D9CDB"/>
</g>
<g id="Vector_12">
<path d="M 2.76695e-06 15.9326L 0.090662 -6.90659e-07" stroke-width="2" stroke-miterlimit="10" transform="translate(138.271 1.27136)" stroke="#2D9CDB"/>
</g>
<g id="Vector_13">
<path d="M -2.76695e-06 15.3894L 4.26137 -6.90659e-07" stroke-width="2" stroke-miterlimit="10" transform="translate(169.46 5.79773)" stroke="#2D9CDB"/>
</g>
<g id="Vector_14">
<path d="M -1.10678e-05 13.76L 8.06942 -6.90659e-07" stroke-width="2" stroke-miterlimit="10" transform="translate(198.565 19.8292)" stroke="#2D9CDB"/>
</g>
<g id="Vector_15">
<path d="M 1.10678e-05 11.2252L 11.4241 2.76264e-06" stroke-width="2" stroke-miterlimit="10" transform="translate(223.407 41.5555)" stroke="#2D9CDB"/>
</g>
<g id="Vector_16">
<path d="M 0 7.87577L 13.9628 2.76264e-06" stroke-width="2" stroke-miterlimit="10" transform="translate(242.266 70.0712)" stroke="#2D9CDB"/>
</g>
<g id="Vector_17">
<path d="M 5.53391e-06 3.53051L 15.5948 0" stroke-width="2" stroke-miterlimit="10" transform="translate(254.144 103.295)" stroke="#2D9CDB"/>
</g>
<g id="Vector_18">
<path d="M -1.10678e-05 -5.52528e-06L 16.0482 0.633688" stroke-width="2" stroke-miterlimit="10" transform="translate(257.952 138.056)" stroke="#2D9CDB"/>
</g>
<g id="Vector_19">
<path d="M 1.10678e-05 -5.52528e-06L 15.4135 4.25473" stroke-width="2" stroke-miterlimit="10" transform="translate(252.875 169.288)" stroke="#EB5757"/>
</g>
<g id="Vector_20">
<path d="M 0 0L 13.7815 8.05682" stroke-width="2" stroke-miterlimit="10" transform="translate(241.269 198.438)" stroke="#EB5757"/>
</g>
<g id="Vector_21">
<path d="M 0 0L 11.2428 11.4063" stroke-width="2" stroke-miterlimit="10" transform="translate(223.589 221.431)" stroke="#EB5757"/>
</g>
<g id="Vector_22">
<path d="M 4.98671 1.10506e-05L -1.38348e-06 4.16419" stroke-width="2" stroke-miterlimit="10" transform="translate(35.635 223.875)" stroke="#2D9CDB"/>
</g>
<g id="Vector_23">
<path d="M 5.16805 -5.52527e-06L 0 3.98314" stroke-width="2" stroke-miterlimit="10" transform="translate(31.0109 218.625)" stroke="#2D9CDB"/>
</g>
<g id="Vector_24">
<path d="M 5.44005 0L -2.76695e-06 3.62104" stroke-width="2" stroke-miterlimit="10" transform="translate(26.6591 213.284)" stroke="#2D9CDB"/>
</g>
<g id="Vector_25">
<path d="M 5.53072 0L 0 3.34946" stroke-width="2" stroke-miterlimit="10" transform="translate(22.6696 207.671)" stroke="#2D9CDB"/>
</g>
<g id="Vector_26">
<path d="M 5.71206 2.76264e-06L -2.76695e-06 3.07788" stroke-width="2" stroke-miterlimit="10" transform="translate(18.9523 201.787)" stroke="#2D9CDB"/>
</g>
<g id="Vector_27">
<path d="M 5.89339 -2.76264e-06L 1.38348e-06 2.80631" stroke-width="2" stroke-miterlimit="10" transform="translate(15.5068 195.812)" stroke="#2D9CDB"/>
</g>
<g id="Vector_28">
<path d="M 5.98406 -5.52528e-06L -1.38348e-06 2.44421" stroke-width="2" stroke-miterlimit="10" transform="translate(12.5148 189.656)" stroke="#2D9CDB"/>
</g>
<g id="Vector_29">
<path d="M 6.16539 0L -1.38348e-06 2.0821" stroke-width="2" stroke-miterlimit="10" transform="translate(9.79468 183.41)" stroke="#2D9CDB"/>
</g>
<g id="Vector_30">
<path d="M 6.25606 -5.52528e-06L 0 1.81052" stroke-width="2" stroke-miterlimit="10" transform="translate(7.43738 176.983)" stroke="#2D9CDB"/>
</g>
<g id="Vector_31">
<path d="M 6.34673 -2.76264e-06L -6.91739e-07 1.44842" stroke-width="2" stroke-miterlimit="10" transform="translate(5.44275 170.465)" stroke="#2D9CDB"/>
</g>
<g id="Vector_32">
<path d="M 6.43739 2.76264e-06L 0 1.17684" stroke-width="2" stroke-miterlimit="10" transform="translate(3.81079 163.766)" stroke="#2D9CDB"/>
</g>
<g id="Vector_33">
<path d="M 6.4374 -5.52528e-06L -1.38348e-06 0.814738" stroke-width="2" stroke-miterlimit="10" transform="translate(2.54138 157.067)" stroke="#2D9CDB"/>
</g>
<g id="Vector_34">
<path d="M 6.52806 0L -1.38348e-06 0.452631" stroke-width="2" stroke-miterlimit="10" transform="translate(1.63452 150.368)" stroke="#2D9CDB"/>
</g>
<g id="Vector_35">
<path d="M 6.52806 0L 0 0.0905316" stroke-width="2" stroke-miterlimit="10" transform="translate(1.09058 143.579)" stroke="#2D9CDB"/>
</g>
<g id="Vector_36">
<path d="M 6.4374 0.271578L 1.38348e-06 -2.76264e-06" stroke-width="2" stroke-miterlimit="10" transform="translate(1 136.518)" stroke="#2D9CDB"/>
</g>
<g id="Vector_37">
<path d="M 6.52806 0.633683L -1.38348e-06 2.76264e-06" stroke-width="2" stroke-miterlimit="10" transform="translate(1.18127 129.366)" stroke="#2D9CDB"/>
</g>
<g id="Vector_38">
<path d="M 6.4374 0.905261L -6.91739e-07 0" stroke-width="2" stroke-miterlimit="10" transform="translate(1.81604 122.305)" stroke="#2D9CDB"/>
</g>
<g id="Vector_39">
<path d="M 6.4374 1.17684L -6.91739e-07 -2.76264e-06" stroke-width="2" stroke-miterlimit="10" transform="translate(2.72266 115.244)" stroke="#2D9CDB"/>
</g>
<g id="Vector_40">
<path d="M 6.34673 1.53895L -6.91739e-07 -5.52528e-06" stroke-width="2" stroke-miterlimit="10" transform="translate(4.08276 108.183)" stroke="#2D9CDB"/>
</g>
<g id="Vector_41">
<path d="M 6.25606 1.90105L 6.91739e-07 -2.76264e-06" stroke-width="2" stroke-miterlimit="10" transform="translate(5.80554 101.213)" stroke="#2D9CDB"/>
</g>
<g id="Vector_42">
<path d="M 6.16539 2.17263L 0 -2.76264e-06" stroke-width="2" stroke-miterlimit="10" transform="translate(7.89075 94.4231)" stroke="#2D9CDB"/>
</g>
<g id="Vector_43">
<path d="M 5.98406 2.53473L 6.91738e-07 2.76264e-06" stroke-width="2" stroke-miterlimit="10" transform="translate(10.3387 87.7238)" stroke="#2D9CDB"/>
</g>
<g id="Vector_44">
<path d="M 5.89339 2.80631L 6.91738e-07 0" stroke-width="2" stroke-miterlimit="10" transform="translate(13.0588 81.1156)" stroke="#2D9CDB"/>
</g>
<g id="Vector_45">
<path d="M 5.71206 3.16841L -2.76695e-06 1.38132e-06" stroke-width="2" stroke-miterlimit="10" transform="translate(16.2323 74.6882)" stroke="#2D9CDB"/>
</g>
<g id="Vector_46">
<path d="M 5.53072 3.43999L 0 0" stroke-width="2" stroke-miterlimit="10" transform="translate(19.6775 68.4419)" stroke="#2D9CDB"/>
</g>
<g id="Vector_47">
<path d="M 5.34938 3.71157L -2.76695e-06 2.76264e-06" stroke-width="2" stroke-miterlimit="10" transform="translate(23.4856 62.3766)" stroke="#2D9CDB"/>
</g>
<g id="Vector_48">
<path d="M 5.07739 3.98315L -2.76695e-06 2.76264e-06" stroke-width="2" stroke-miterlimit="10" transform="translate(27.5656 56.4923)" stroke="#2D9CDB"/>
</g>
<g id="Vector_49">
<path d="M 4.98671 4.34526L 0 0" stroke-width="2" stroke-miterlimit="10" transform="translate(31.9176 50.7893)" stroke="#2D9CDB"/>
</g>
<g id="Vector_50">
<path d="M 4.71471 4.5263L -2.76695e-06 -1.38132e-06" stroke-width="2" stroke-miterlimit="10" transform="translate(36.6323 45.4484)" stroke="#2D9CDB"/>
</g>
<g id="Vector_51">
<path d="M 4.44271 4.70736L -2.76695e-06 1.38132e-06" stroke-width="2" stroke-miterlimit="10" transform="translate(41.6191 40.2882)" stroke="#2D9CDB"/>
</g>
<g id="Vector_52">
<path d="M 4.17071 4.97894L 1.38348e-06 0" stroke-width="2" stroke-miterlimit="10" transform="translate(46.7871 35.3999)" stroke="#2D9CDB"/>
</g>
<g id="Vector_53">
<path d="M 3.89871 5.25051L 0 1.38132e-06" stroke-width="2" stroke-miterlimit="10" transform="translate(52.3177 30.783)" stroke="#2D9CDB"/>
</g>
<g id="Vector_54">
<path d="M 3.6267 5.43156L 2.76695e-06 -1.38132e-06" stroke-width="2" stroke-miterlimit="10" transform="translate(58.0299 26.438)" stroke="#2D9CDB"/>
</g>
<g id="Vector_55">
<path d="M 3.3547 5.61262L 2.76695e-06 6.90659e-07" stroke-width="2" stroke-miterlimit="10" transform="translate(63.9232 22.4548)" stroke="#2D9CDB"/>
</g>
<g id="Vector_56">
<path d="M 2.99202 5.79367L -1.38348e-06 -1.38132e-06" stroke-width="2" stroke-miterlimit="10" transform="translate(70.0885 18.7432)" stroke="#2D9CDB"/>
</g>
<g id="Vector_57">
<path d="M 2.8107 5.8842L 0 1.38132e-06" stroke-width="2" stroke-miterlimit="10" transform="translate(76.3447 15.3936)" stroke="#2D9CDB"/>
</g>
<g id="Vector_58">
<path d="M 2.44802 5.97472L -2.76695e-06 -1.38132e-06" stroke-width="2" stroke-miterlimit="10" transform="translate(82.8728 12.4064)" stroke="#2D9CDB"/>
</g>
<g id="Vector_59">
<path d="M 2.08536 6.15578L 0 -1.38132e-06" stroke-width="2" stroke-miterlimit="10" transform="translate(89.4915 9.69055)" stroke="#2D9CDB"/>
</g>
<g id="Vector_60">
<path d="M 1.72268 6.2463L 0 0" stroke-width="2" stroke-miterlimit="10" transform="translate(96.2915 7.33679)" stroke="#2D9CDB"/>
</g>
<g id="Vector_61">
<path d="M 1.45069 6.42735L 0 -6.90659e-07" stroke-width="2" stroke-miterlimit="10" transform="translate(103.092 5.34509)" stroke="#2D9CDB"/>
</g>
<g id="Vector_62">
<path d="M 1.17868 6.33683L -2.76695e-06 3.4533e-07" stroke-width="2" stroke-miterlimit="10" transform="translate(110.073 3.8064)" stroke="#2D9CDB"/>
</g>
<g id="Vector_63">
<path d="M 0.816002 6.42735L 0 6.90659e-07" stroke-width="2" stroke-miterlimit="10" transform="translate(117.145 2.53906)" stroke="#2D9CDB"/>
</g>
<g id="Vector_64">
<path d="M 0.45334 6.51788L 2.76695e-06 6.90659e-07" stroke-width="2" stroke-miterlimit="10" transform="translate(124.217 1.63391)" stroke="#2D9CDB"/>
</g>
<g id="Vector_65">
<path d="M 0.0906703 6.42735L -2.76695e-06 6.90659e-07" stroke-width="2" stroke-miterlimit="10" transform="translate(131.38 1.18127)" stroke="#2D9CDB"/>
</g>
<g id="Vector_66">
<path d="M 2.76695e-06 6.51788L 0.272008 0" stroke-width="2" stroke-miterlimit="10" transform="translate(138.271 1)" stroke="#2D9CDB"/>
</g>
<g id="Vector_67">
<path d="M -5.53391e-06 6.42735L 0.544005 -6.90659e-07" stroke-width="2" stroke-miterlimit="10" transform="translate(145.161 1.27136)" stroke="#2D9CDB"/>
</g>
<g id="Vector_68">
<path d="M 2.76695e-06 6.42735L 0.997337 0" stroke-width="2" stroke-miterlimit="10" transform="translate(151.871 1.90527)" stroke="#2D9CDB"/>
</g>
<g id="Vector_69">
<path d="M 2.76695e-06 6.33683L 1.26934 3.4533e-07" stroke-width="2" stroke-miterlimit="10" transform="translate(158.671 2.90112)" stroke="#2D9CDB"/>
</g>
<g id="Vector_70">
<path d="M -2.76695e-06 6.2463L 1.54134 3.4533e-07" stroke-width="2" stroke-miterlimit="10" transform="translate(165.38 4.25903)" stroke="#2D9CDB"/>
</g>
<g id="Vector_71">
<path d="M 0 6.15577L 1.90402 0" stroke-width="2" stroke-miterlimit="10" transform="translate(171.999 5.979)" stroke="#2D9CDB"/>
</g>
<g id="Vector_72">
<path d="M -2.76695e-06 6.06525L 2.17603 -6.90659e-07" stroke-width="2" stroke-miterlimit="10" transform="translate(178.527 8.06079)" stroke="#2D9CDB"/>
</g>
<g id="Vector_73">
<path d="M -2.76695e-06 5.97472L 2.62936 0" stroke-width="2" stroke-miterlimit="10" transform="translate(184.874 10.5052)" stroke="#2D9CDB"/>
</g>
<g id="Vector_74">
<path d="M 1.10678e-05 5.79367L 2.81068 -1.38132e-06" stroke-width="2" stroke-miterlimit="10" transform="translate(191.221 13.3116)" stroke="#2D9CDB"/>
</g>
<g id="Vector_75">
<path d="M -5.53391e-06 5.70314L 3.17336 0" stroke-width="2" stroke-miterlimit="10" transform="translate(197.295 16.3894)" stroke="#2D9CDB"/>
</g>
<g id="Vector_76">
<path d="M 0 5.52209L 3.44536 -6.90659e-07" stroke-width="2" stroke-miterlimit="10" transform="translate(203.279 19.8292)" stroke="#2D9CDB"/>
</g>
<g id="Vector_77">
<path d="M -5.53391e-06 5.34104L 3.71737 0" stroke-width="2" stroke-miterlimit="10" transform="translate(209.082 23.6315)" stroke="#2D9CDB"/>
</g>
<g id="Vector_78">
<path d="M 0 5.06946L 4.08004 -1.38132e-06" stroke-width="2" stroke-miterlimit="10" transform="translate(214.613 27.7958)" stroke="#2D9CDB"/>
</g>
<g id="Vector_79">
<path d="M 0 4.88841L 4.26139 1.38132e-06" stroke-width="2" stroke-miterlimit="10" transform="translate(220.053 32.1409)" stroke="#2D9CDB"/>
</g>
<g id="Vector_80">
<path d="M 5.53391e-06 4.70736L 4.62406 -1.38132e-06" stroke-width="2" stroke-miterlimit="10" transform="translate(225.13 36.8484)" stroke="#2D9CDB"/>
</g>
<g id="Vector_81">
<path d="M 5.53391e-06 4.43578L 4.7147 -1.38132e-06" stroke-width="2" stroke-miterlimit="10" transform="translate(230.117 41.8274)" stroke="#2D9CDB"/>
</g>
<g id="Vector_82">
<path d="M 1.10678e-05 4.1642L 4.98673 1.38132e-06" stroke-width="2" stroke-miterlimit="10" transform="translate(234.741 47.0778)" stroke="#2D9CDB"/>
</g>
<g id="Vector_83">
<path d="M 0 3.89262L 5.25871 1.38132e-06" stroke-width="2" stroke-miterlimit="10" transform="translate(239.093 52.5093)" stroke="#2D9CDB"/>
</g>
<g id="Vector_84">
<path d="M 5.53391e-06 3.62104L 5.34939 -2.76264e-06" stroke-width="2" stroke-miterlimit="10" transform="translate(243.264 58.2126)" stroke="#2D9CDB"/>
</g>
<g id="Vector_85">
<path d="M -1.10678e-05 3.25894L 5.53071 2.76264e-06" stroke-width="2" stroke-miterlimit="10" transform="translate(247.072 64.187)" stroke="#2D9CDB"/>
</g>
<g id="Vector_86">
<path d="M 5.53391e-06 3.07789L 5.80272 0" stroke-width="2" stroke-miterlimit="10" transform="translate(250.517 70.2524)" stroke="#2D9CDB"/>
</g>
<g id="Vector_87">
<path d="M 1.10678e-05 2.71578L 5.8934 0" stroke-width="2" stroke-miterlimit="10" transform="translate(253.781 76.5894)" stroke="#2D9CDB"/>
</g>
<g id="Vector_88">
<path d="M -5.53391e-06 2.35368L 5.98406 -2.76264e-06" stroke-width="2" stroke-miterlimit="10" transform="translate(256.683 83.1073)" stroke="#2D9CDB"/>
</g>
<g id="Vector_89">
<path d="M 1.10678e-05 2.0821L 6.16539 0" stroke-width="2" stroke-miterlimit="10" transform="translate(259.221 89.7156)" stroke="#2D9CDB"/>
</g>
<g id="Vector_90">
<path d="M 5.53391e-06 1.71999L 6.25606 0" stroke-width="2" stroke-miterlimit="10" transform="translate(261.397 96.505)" stroke="#2D9CDB"/>
</g>
<g id="Vector_91">
<path d="M 1.10678e-05 1.44842L 6.34674 0" stroke-width="2" stroke-miterlimit="10" transform="translate(263.301 103.295)" stroke="#2D9CDB"/>
</g>
<g id="Vector_92">
<path d="M -5.53391e-06 1.17684L 6.4374 -2.76264e-06" stroke-width="2" stroke-miterlimit="10" transform="translate(264.843 110.265)" stroke="#2D9CDB"/>
</g>
<g id="Vector_93">
<path d="M 1.10678e-05 0.814729L 6.43739 0" stroke-width="2" stroke-miterlimit="10" transform="translate(266.021 117.326)" stroke="#2D9CDB"/>
</g>
<g id="Vector_94">
<path d="M 5.53391e-06 0.362107L 6.52805 -5.52528e-06" stroke-width="2" stroke-miterlimit="10" transform="translate(266.837 124.478)" stroke="#2D9CDB"/>
</g>
<g id="Vector_95">
<path d="M 5.53391e-06 0.0905289L 6.52805 -2.76264e-06" stroke-width="2" stroke-miterlimit="10" transform="translate(267.291 131.539)" stroke="#2D9CDB"/>
</g>
<g id="Vector_96">
<path d="M -1.10678e-05 2.76264e-06L 6.43739 0.271584" stroke-width="2" stroke-miterlimit="10" transform="translate(267.472 138.418)" stroke="#2D9CDB"/>
</g>
<g id="Vector_97">
<path d="M 0 -5.52528e-06L 6.52807 0.543157" stroke-width="2" stroke-miterlimit="10" transform="translate(267.2 145.299)" stroke="#2D9CDB"/>
</g>
<g id="Vector_98">
<path d="M -1.10678e-05 2.76264e-06L 6.52806 0.995782" stroke-width="2" stroke-miterlimit="10" transform="translate(266.565 151.997)" stroke="#2D9CDB"/>
</g>
<g id="Vector_99">
<path d="M 0 0L 6.34673 1.26736" stroke-width="2" stroke-miterlimit="10" transform="translate(265.659 157.787)" stroke="#2D9CDB"/>
</g>
<g id="Vector_100">
<path d="M 0 0L 6.16541 2.26315" stroke-width="2" stroke-miterlimit="10" transform="translate(260.672 178.522)" stroke="#EB5757"/>
</g>
<g id="Vector_101">
<path d="M -1.10678e-05 -2.76264e-06L 5.98405 2.53473" stroke-width="2" stroke-miterlimit="10" transform="translate(258.405 184.949)" stroke="#EB5757"/>
</g>
<g id="Vector_102">
<path d="M -1.10678e-05 5.52528e-06L 5.89338 2.89684" stroke-width="2" stroke-miterlimit="10" transform="translate(255.685 191.195)" stroke="#EB5757"/>
</g>
<g id="Vector_103">
<path d="M 0 -5.52527e-06L 5.71204 3.16841" stroke-width="2" stroke-miterlimit="10" transform="translate(252.693 197.351)" stroke="#EB5757"/>
</g>
<g id="Vector_104">
<path d="M -5.53391e-06 0L 5.44005 3.43999" stroke-width="2" stroke-miterlimit="10" transform="translate(249.429 203.326)" stroke="#EB5757"/>
</g>
<g id="Vector_105">
<path d="M -5.53391e-06 2.76264e-06L 5.25873 3.8021" stroke-width="2" stroke-miterlimit="10" transform="translate(245.802 209.029)" stroke="#EB5757"/>
</g>
<g id="Vector_106">
<path d="M 0 0L 5.16806 3.98314" stroke-width="2" stroke-miterlimit="10" transform="translate(241.813 214.642)" stroke="#EB5757"/>
</g>
<g id="Vector_107">
<path d="M -5.53391e-06 5.52528e-06L 4.89604 4.25472" stroke-width="2" stroke-miterlimit="10" transform="translate(238.549 218.806)" stroke="#EB5757"/>
</g>
<g id="Vector_108">
<path d="M 5.53391e-06 0L 4.62406 4.52631" stroke-width="2" stroke-miterlimit="10" transform="translate(234.65 223.242)" stroke="#EB5757"/>
</g>
</g>
</g>
</svg>

